<svg width="18" height="18" viewBox="0 0 18 18" fill="none" xmlns="http://www.w3.org/2000/svg">
<path d="M1 5.9626C1 4.68149 1 4.04181 1.34157 3.66808C1.46246 3.53513 1.60952 3.4286 1.77353 3.35519C2.23592 3.15007 2.84344 3.35258 4.0585 3.7576C4.98587 4.06701 5.44912 4.22172 5.91846 4.2052C6.09063 4.19954 6.26182 4.17684 6.42951 4.13741C6.88581 4.02877 7.29257 3.7576 8.10608 3.21612L9.30723 2.41478C10.3502 1.71947 10.8708 1.37181 11.4688 1.29272C12.0667 1.21189 12.6612 1.41005 13.8493 1.80638L14.8619 2.14361C15.7223 2.43042 16.1526 2.57383 16.3985 2.9154C16.6445 3.25697 16.6445 3.71066 16.6445 4.61718V11.6824C16.6445 12.9626 16.6445 13.6032 16.3029 13.9769C16.1819 14.1093 16.0348 14.2152 15.871 14.2881C15.4086 14.4941 14.8011 14.2916 13.586 13.8865C12.6586 13.5771 12.1954 13.4224 11.726 13.4389C11.5539 13.4446 11.3827 13.4673 11.215 13.5067C10.7587 13.6154 10.3519 13.8865 9.53842 14.428L8.33727 15.2294C7.2943 15.9247 6.77369 16.2723 6.17572 16.3514C5.57775 16.4323 4.98326 16.2341 3.79515 15.8378L2.7826 15.5005C1.92216 15.2137 1.49193 15.0703 1.24597 14.7287C1 14.3872 1 13.9326 1 13.027V5.9626Z" stroke="white" stroke-width="1.5"/>
<path opacity="0.5" d="M6.2146 4.1628V16.2099M11.4294 1V13.1679" stroke="white" stroke-width="1.5"/>
</svg>
