<svg width="173" height="50" viewBox="0 0 173 50" fill="none" xmlns="http://www.w3.org/2000/svg">
<path d="M114.123 5.41309H109.922L96.4668 19.943V5.41309H92.8359V31.4102H96.4668V24.8575L101.522 19.3732L110.492 31.4102H114.906L104.156 16.453L114.123 5.41309Z" fill="white"/>
<path d="M124.018 19.943H137.118V16.8091H124.018V8.61821H138.684V5.41309H120.316V31.4102H139.111V28.2051H124.018V19.943Z" fill="white"/>
<path d="M145.52 5.41309V31.4102H149.222V11.3248L164.101 31.4102H167.945V5.41309H164.315V25.5698L149.293 5.41309H145.52Z" fill="white"/>
<path d="M46.4893 1.92285L33.4609 31.41H43.784V27.7776H39.2988L46.3469 11.1109L53.3951 27.7776H49.0523V31.41H59.3753L46.4893 1.92285Z" fill="#0DA1C7"/>
<path d="M24.0626 5.41309V17.094H8.96964V5.41309H5.26758V31.4102H8.96964V20.2991H24.0626V31.4102H27.6935V5.41309H24.0626Z" fill="white"/>
<path d="M14.5237 39.7435L15.734 42.5213H13.3134L14.5237 39.7435ZM14.2389 39.0312L11.8184 44.4444H12.4591L13.0998 43.0199H16.09L16.7307 44.4444H17.4426L15.0221 39.0312H14.2389Z" fill="white"/>
<path d="M24.0641 39.0312V43.4472L20.7892 39.0312H20.1484V44.5156H20.718V40.0996L23.9929 44.5156H24.6336V39.0312H24.0641Z" fill="white"/>
<path d="M31.5393 39.0312L28.6203 42.2364V39.0312H28.0508V44.5156H28.6203V43.0911L29.6882 41.8803L31.6816 44.5156H32.4648L30.1154 41.4529L32.3224 39.0312H31.5393Z" fill="white"/>
<path d="M37.3762 39.7435L38.5864 42.5213H36.1659L37.3762 39.7435ZM37.0202 39.0312L34.5996 44.4444H35.2404L35.8811 43.0199H38.8712L39.512 44.4444H40.2239L37.8033 39.0312H37.0202Z" fill="white"/>
<path d="M50.1211 39.0312V44.5156H53.1112V43.9458H50.7618V39.0312H50.1211Z" fill="white"/>
<path d="M55.7441 39.0312V44.5156H59.5174V43.9458H56.3849V42.0227H59.0902V41.4529H56.3849V39.6011H59.4462V39.0312H55.7441Z" fill="white"/>
<path d="M75.3945 39.0312V44.5156H79.1678V43.9458H76.0353V42.0227H78.7406V41.4529H76.0353V39.6011H79.0966V39.0312H75.3945Z" fill="white"/>
<path d="M84.3655 39.7435L85.5758 42.5213H83.1552L84.3655 39.7435ZM84.0807 39.0312L81.6602 44.4444H82.3009L82.9416 43.0199H85.9318L86.5725 44.4444H87.2844L84.8639 39.0312H84.0807Z" fill="white"/>
<path d="M89.918 39.0312V44.5156H92.9081V43.9458H90.5587V39.0312H89.918Z" fill="white"/>
<path d="M100.17 39.0312V44.5156H103.943V43.9458H100.739V42.0227H103.516V41.4529H100.739V39.6011H103.801V39.0312H100.17Z" fill="white"/>
<path d="M113.055 39.0312V39.6011H114.835V44.5156H115.475V39.6011H117.255V39.0312H113.055Z" fill="white"/>
<path d="M121.528 39.7435L122.738 42.5213H120.317L121.528 39.7435ZM121.243 39.0312L118.822 44.4444H119.463L120.104 43.0199H123.094L123.735 44.4444H124.375L121.955 39.0312H121.243Z" fill="white"/>
<path d="M125.869 39.0312V39.6011H127.649V44.5156H128.219V39.6011H129.998V39.0312H125.869Z" fill="white"/>
<path d="M132.848 39.0312V44.5156H136.692V43.9458H133.488V42.0227H136.265V41.4529H133.488V39.6011H136.55V39.0312H132.848Z" fill="white"/>
<path d="M153.35 39.7435L154.56 42.5213H152.14L153.35 39.7435ZM153.065 39.0312L150.645 44.4444H151.285L151.926 43.0199H154.916L155.557 44.4444H156.198L153.777 39.0312H153.065Z" fill="white"/>
<path d="M157.551 39.0312V39.6011H159.331V44.5156H159.971V39.6011H161.751V39.0312H157.551Z" fill="white"/>
<path d="M165.811 39.7435L167.021 42.5213H164.601L165.811 39.7435ZM165.526 39.0312L163.105 44.4444H163.746L164.387 43.0199H167.377L168.018 44.4444H168.73L166.309 39.0312H165.526Z" fill="white"/>
<path d="M75.8912 20.0855H69.0566V8.61821H75.82C81.5867 8.61821 82.7258 11.6809 82.7258 14.245C82.797 18.0199 80.3764 20.0855 75.8912 20.0855ZM80.9459 22.5071C84.4344 21.1538 86.2143 18.3048 86.2143 14.1738C86.2143 8.61821 82.441 5.41309 75.82 5.41309H65.4258V31.4102H69.0566V23.3618H75.82C76.2472 23.3618 76.6743 23.3618 77.0303 23.2906H77.3151L82.2274 31.4815H86.3566L80.4476 22.6496L80.9459 22.5071Z" fill="white"/>
<path d="M44.9227 39.0312H42.6445V44.4444H44.9939C46.2042 44.4444 46.9873 43.8746 46.9873 42.9486C46.9873 42.2364 46.5602 41.6666 45.777 41.5954C46.4178 41.4529 46.7737 41.0256 46.7737 40.3845C46.7026 39.5298 45.9906 39.0312 44.9227 39.0312ZM43.2853 41.3817V39.6011H44.9227C45.6347 39.6011 46.0618 39.886 46.0618 40.4558C46.0618 41.0256 45.6347 41.3817 44.9227 41.3817H43.2853ZM43.2853 43.9458V42.0227H44.9227C45.777 42.0227 46.2754 42.3788 46.2754 42.9486C46.2754 43.5897 45.777 43.9458 44.9227 43.9458H43.2853Z" fill="white"/>
<path d="M7.40319 39.0312H5.125V44.4444H7.47438C8.68467 44.4444 9.4678 43.8746 9.4678 42.9486C9.4678 42.2364 9.04064 41.6666 8.25751 41.5954C8.89825 41.4529 9.25422 41.0256 9.25422 40.3845C9.18302 39.5298 8.47109 39.0312 7.40319 39.0312ZM5.69455 41.3817V39.6011H7.332C8.04393 39.6011 8.47109 39.886 8.47109 40.4558C8.47109 41.0256 8.04393 41.3817 7.332 41.3817H5.69455ZM5.69455 43.9458V42.0227H7.332C8.18632 42.0227 8.68467 42.3788 8.68467 42.9486C8.68467 43.5897 8.18632 43.9458 7.332 43.9458H5.69455Z" fill="white"/>
<path d="M69.9123 39.0312H67.8477V44.4444H68.4884V42.735H69.9123C70.0546 42.735 70.1258 42.735 70.2682 42.735L71.4073 44.4444H72.1193L70.8378 42.5925C71.6209 42.3788 72.0481 41.7378 72.0481 40.8119C72.0481 39.7435 71.2649 39.0312 69.9123 39.0312ZM68.4884 42.1652V39.6011H69.9123C70.909 39.6011 71.4785 40.0284 71.4785 40.8831C71.4785 41.7378 70.909 42.1652 69.9123 42.1652H68.4884Z" fill="white"/>
<path d="M108.784 39.0312C107.645 39.0312 106.933 39.6011 106.933 40.4558C106.933 42.3788 109.995 41.6666 109.995 43.0911C109.995 43.5897 109.496 43.9458 108.713 43.9458C108.072 43.9458 107.432 43.6609 106.933 43.1623L106.648 43.7321C107.147 44.2307 107.93 44.5868 108.713 44.5868C109.852 44.5868 110.706 44.017 110.706 43.0911C110.706 41.0968 107.645 41.8803 107.645 40.4558C107.645 39.9572 108.072 39.7435 108.784 39.7435C109.211 39.7435 109.781 39.886 110.279 40.1709L110.564 39.6011C109.995 39.2449 109.354 39.0312 108.784 39.0312Z" fill="white"/>
<path d="M146.09 39.0312H143.883V44.4444H146.09C147.656 44.4444 148.938 43.3048 148.938 41.7378C148.866 40.2421 147.656 39.0312 146.09 39.0312ZM144.524 43.9458V39.6723H146.09C147.3 39.6723 148.297 40.5982 148.297 41.809C148.297 43.0199 147.371 43.9458 146.161 43.9458H144.524Z" fill="white"/>
</svg>
