<?xml version="1.0" encoding="UTF-8"?>
<svg id="Layer_2" data-name="Layer 2" xmlns="http://www.w3.org/2000/svg" xmlns:xlink="http://www.w3.org/1999/xlink" viewBox="0 0 405.69 404.12">
  <defs>
    <style>
      .cls-1 {
        fill: #111;
      }

      .cls-2 {
        fill: none;
        stroke: url(#linear-gradient);
        stroke-miterlimit: 10;
        stroke-width: 26.49px;
      }

      .cls-3 {
        fill: #fbd521;
      }
    </style>
    <linearGradient id="linear-gradient" x1="0" y1="213" x2="382.25" y2="213" gradientUnits="userSpaceOnUse">
      <stop offset="0" stop-color="#09d1f2"/>
      <stop offset=".34" stop-color="#3b99f9"/>
      <stop offset=".58" stop-color="#7f7ef7"/>
      <stop offset=".88" stop-color="#bb6ced"/>
    </linearGradient>
  </defs>
  <g id="Layer_1-2" data-name="Layer 1">
    <g>
      <g>
        <path class="cls-1" d="M207.5,302.67c-4.84-4.98-7.34-25.41-11.42-32.3-20.64-1.05-41.77-.11-62.59-.48-.49.12-3,7.27-3.51,8.64-2.42,6.46-4.31,16.6-7.11,22.14-1.51,3-4.14,4.86-7.49,5.26-6.39.77-24.38.76-30.78,0-10.32-1.22-3.17-14.44-1.12-20.66,17.55-53.3,38.08-105.65,55.49-159.01,1.17-2.41,2.63-5.06,5.39-5.86,11.46-.09,24.99-1.58,36.28-.53,9.37.88,10.66,11.27,13.44,18.81,19.56,53.15,36.18,107.5,55.19,160.86.61,4.29-2.65,5.92-6.41,6.35-4.78.54-27.2.63-30.92-.57-.82-.27-3.85-2.07-4.45-2.68ZM184,233.17l-19.87-63.76-19.88,63.76h39.75Z"/>
        <path class="cls-1" d="M262.53,120.08c11.27.69,24.87-1.46,35.86-.17,2.44.29,4.07,1.02,4.7,3.55l-.23,179.45c-1.17,1.91-3.33,2.49-5.43,2.82-6.32.98-24.73.9-31.22.11-3.37-.41-5.97-1.47-7.05-4.95l-.19-174.63c-.14-2.61,1.28-4.95,3.57-6.18Z"/>
      </g>
      <circle class="cls-2" cx="191.13" cy="213" r="177.88"/>
      <path class="cls-3" d="M356.96.05c6.07,19.89,14.05,34.67,33.88,43.19,2.76,1.19,12.59,3.76,14.05,4.95.76.62.92,1.13.72,2.09-.22,1.04-16.69,6.15-19.73,7.73-16.48,8.59-23.68,23.65-28.78,40.77-.12.66-1.41.56-1.82.43-1.08-.35-6.52-17.67-8.43-21.14-8.77-15.86-23.34-22.49-40.06-27.37-.65-.12-.56-1.41-.44-1.82.3-.96,16.16-5.97,18.79-7.27,16.81-8.27,24.99-24.3,29.84-41.61l1.98.05Z"/>
    </g>
  </g>
</svg>