<svg width="118" height="30" viewBox="0 0 118 30" fill="none" xmlns="http://www.w3.org/2000/svg">
<rect width="118" height="30" rx="5" fill="#0DA1C7" fill-opacity="0.2"/>
<rect x="0.5" y="0.5" width="117" height="29" rx="4.5" stroke="#0DA1C7" stroke-opacity="0.2"/>
<path d="M26.75 22.5H13.25C12.9425 22.5 12.6875 22.245 12.6875 21.9375C12.6875 21.63 12.9425 21.375 13.25 21.375H26.75C27.0575 21.375 27.3125 21.63 27.3125 21.9375C27.3125 22.245 27.0575 22.5 26.75 22.5Z" fill="#0DA1C7"/>
<path d="M25.2649 8.61C23.8099 7.155 22.3849 7.1175 20.8924 8.61L19.9849 9.5175C19.9099 9.5925 19.8799 9.7125 19.9099 9.8175C20.4799 11.805 22.0699 13.395 24.0574 13.965C24.0874 13.9725 24.1174 13.98 24.1474 13.98C24.2299 13.98 24.3049 13.95 24.3649 13.89L25.2649 12.9825C26.0074 12.2475 26.3674 11.535 26.3674 10.815C26.3749 10.0725 26.0149 9.3525 25.2649 8.61Z" fill="#0DA1C7"/>
<path d="M22.7082 14.6476C22.4907 14.5426 22.2807 14.4376 22.0782 14.3176C21.9132 14.2201 21.7557 14.1151 21.5982 14.0026C21.4707 13.9201 21.3207 13.8001 21.1782 13.6801C21.1632 13.6726 21.1107 13.6276 21.0507 13.5676C20.8032 13.3576 20.5257 13.0876 20.2782 12.7876C20.2557 12.7726 20.2182 12.7201 20.1657 12.6526C20.0907 12.5626 19.9632 12.4126 19.8507 12.2401C19.7607 12.1276 19.6557 11.9626 19.5582 11.7976C19.4382 11.5951 19.3332 11.3926 19.2282 11.1826C19.2199 11.1649 19.2118 11.1472 19.2038 11.1295C19.0806 10.8579 18.7254 10.778 18.5145 10.9888L14.2557 15.2476C14.1582 15.3451 14.0682 15.5326 14.0457 15.6601L13.6407 18.5326C13.5657 19.0426 13.7082 19.5226 14.0232 19.8451C14.2932 20.1076 14.6682 20.2501 15.0732 20.2501C15.1632 20.2501 15.2532 20.2426 15.3432 20.2276L18.2232 19.8226C18.3582 19.8001 18.5457 19.7101 18.6357 19.6126L22.8886 15.3597C23.101 15.1473 23.0211 14.7824 22.7452 14.6636C22.733 14.6583 22.7206 14.653 22.7082 14.6476Z" fill="#0DA1C7"/>
<path d="M43.326 20.112C42.5793 20.112 41.8653 20 41.184 19.776C40.5027 19.5427 39.966 19.244 39.574 18.88L40.092 17.788C40.4653 18.1147 40.9413 18.3853 41.52 18.6C42.0987 18.8147 42.7007 18.922 43.326 18.922C43.8953 18.922 44.3573 18.8567 44.712 18.726C45.0667 18.5953 45.328 18.418 45.496 18.194C45.664 17.9607 45.748 17.6993 45.748 17.41C45.748 17.074 45.636 16.8033 45.412 16.598C45.1973 16.3927 44.9127 16.2293 44.558 16.108C44.2127 15.9773 43.83 15.8653 43.41 15.772C42.99 15.6787 42.5653 15.5713 42.136 15.45C41.716 15.3193 41.3287 15.156 40.974 14.96C40.6287 14.764 40.3487 14.5027 40.134 14.176C39.9193 13.84 39.812 13.4107 39.812 12.888C39.812 12.384 39.9427 11.922 40.204 11.502C40.4747 11.0727 40.8853 10.732 41.436 10.48C41.996 10.2187 42.7053 10.088 43.564 10.088C44.1333 10.088 44.698 10.1627 45.258 10.312C45.818 10.4613 46.3033 10.676 46.714 10.956L46.252 12.076C45.832 11.796 45.3887 11.5953 44.922 11.474C44.4553 11.3433 44.0027 11.278 43.564 11.278C43.0133 11.278 42.5607 11.348 42.206 11.488C41.8513 11.628 41.59 11.8147 41.422 12.048C41.2633 12.2813 41.184 12.5427 41.184 12.832C41.184 13.1773 41.2913 13.4527 41.506 13.658C41.73 13.8633 42.0147 14.0267 42.36 14.148C42.7147 14.2693 43.102 14.3813 43.522 14.484C43.942 14.5773 44.362 14.6847 44.782 14.806C45.2113 14.9273 45.5987 15.086 45.944 15.282C46.2987 15.478 46.5833 15.7393 46.798 16.066C47.0127 16.3927 47.12 16.8127 47.12 17.326C47.12 17.8207 46.9847 18.2827 46.714 18.712C46.4433 19.132 46.0233 19.4727 45.454 19.734C44.894 19.986 44.1847 20.112 43.326 20.112ZM52.9313 12.51C53.538 12.51 54.07 12.6267 54.5273 12.86C54.994 13.0933 55.358 13.448 55.6193 13.924C55.8806 14.4 56.0113 15.002 56.0113 15.73V20H54.6673V15.884C54.6673 15.1653 54.49 14.624 54.1353 14.26C53.79 13.896 53.3 13.714 52.6653 13.714C52.1893 13.714 51.774 13.8073 51.4193 13.994C51.0646 14.1807 50.7893 14.456 50.5933 14.82C50.4066 15.184 50.3133 15.6367 50.3133 16.178V20H48.9693V12.58H50.2573V14.582L50.0473 14.05C50.29 13.5647 50.6633 13.1867 51.1673 12.916C51.6713 12.6453 52.2593 12.51 52.9313 12.51ZM58.4986 20V12.58H59.8426V20H58.4986ZM59.1706 11.152C58.9093 11.152 58.6899 11.068 58.5126 10.9C58.3446 10.732 58.2606 10.5267 58.2606 10.284C58.2606 10.032 58.3446 9.822 58.5126 9.654C58.6899 9.486 58.9093 9.402 59.1706 9.402C59.4319 9.402 59.6466 9.486 59.8146 9.654C59.9919 9.81267 60.0806 10.0133 60.0806 10.256C60.0806 10.508 59.9966 10.7227 59.8286 10.9C59.6606 11.068 59.4413 11.152 59.1706 11.152ZM66.3428 20.084C65.7268 20.084 65.1621 19.944 64.6488 19.664C64.1448 19.3747 63.7388 18.95 63.4308 18.39C63.1321 17.83 62.9828 17.13 62.9828 16.29C62.9828 15.45 63.1274 14.75 63.4168 14.19C63.7154 13.63 64.1168 13.21 64.6208 12.93C65.1341 12.65 65.7081 12.51 66.3428 12.51C67.0708 12.51 67.7148 12.6687 68.2748 12.986C68.8348 13.3033 69.2781 13.7467 69.6048 14.316C69.9314 14.876 70.0948 15.534 70.0948 16.29C70.0948 17.046 69.9314 17.7087 69.6048 18.278C69.2781 18.8473 68.8348 19.2907 68.2748 19.608C67.7148 19.9253 67.0708 20.084 66.3428 20.084ZM62.4088 22.716V12.58H63.6968V14.582L63.6128 16.304L63.7528 18.026V22.716H62.4088ZM66.2308 18.908C66.7068 18.908 67.1314 18.8007 67.5048 18.586C67.8874 18.3713 68.1861 18.068 68.4008 17.676C68.6248 17.2747 68.7368 16.8127 68.7368 16.29C68.7368 15.758 68.6248 15.3007 68.4008 14.918C68.1861 14.526 67.8874 14.2227 67.5048 14.008C67.1314 13.7933 66.7068 13.686 66.2308 13.686C65.7641 13.686 65.3394 13.7933 64.9568 14.008C64.5834 14.2227 64.2848 14.526 64.0608 14.918C63.8461 15.3007 63.7388 15.758 63.7388 16.29C63.7388 16.8127 63.8461 17.2747 64.0608 17.676C64.2848 18.068 64.5834 18.3713 64.9568 18.586C65.3394 18.8007 65.7641 18.908 66.2308 18.908ZM75.8857 20.084C75.2697 20.084 74.7051 19.944 74.1917 19.664C73.6877 19.3747 73.2817 18.95 72.9737 18.39C72.6751 17.83 72.5257 17.13 72.5257 16.29C72.5257 15.45 72.6704 14.75 72.9597 14.19C73.2584 13.63 73.6597 13.21 74.1637 12.93C74.6771 12.65 75.2511 12.51 75.8857 12.51C76.6137 12.51 77.2577 12.6687 77.8177 12.986C78.3777 13.3033 78.8211 13.7467 79.1477 14.316C79.4744 14.876 79.6377 15.534 79.6377 16.29C79.6377 17.046 79.4744 17.7087 79.1477 18.278C78.8211 18.8473 78.3777 19.2907 77.8177 19.608C77.2577 19.9253 76.6137 20.084 75.8857 20.084ZM71.9517 22.716V12.58H73.2397V14.582L73.1557 16.304L73.2957 18.026V22.716H71.9517ZM75.7737 18.908C76.2497 18.908 76.6744 18.8007 77.0477 18.586C77.4304 18.3713 77.7291 18.068 77.9437 17.676C78.1677 17.2747 78.2797 16.8127 78.2797 16.29C78.2797 15.758 78.1677 15.3007 77.9437 14.918C77.7291 14.526 77.4304 14.2227 77.0477 14.008C76.6744 13.7933 76.2497 13.686 75.7737 13.686C75.3071 13.686 74.8824 13.7933 74.4997 14.008C74.1264 14.2227 73.8277 14.526 73.6037 14.918C73.3891 15.3007 73.2817 15.758 73.2817 16.29C73.2817 16.8127 73.3891 17.2747 73.6037 17.676C73.8277 18.068 74.1264 18.3713 74.4997 18.586C74.8824 18.8007 75.3071 18.908 75.7737 18.908ZM84.7987 20.084C84.0054 20.084 83.3054 19.9207 82.6987 19.594C82.1014 19.2673 81.6347 18.8193 81.2987 18.25C80.972 17.6807 80.8087 17.0273 80.8087 16.29C80.8087 15.5527 80.9674 14.8993 81.2847 14.33C81.6114 13.7607 82.0547 13.3173 82.6147 13C83.184 12.6733 83.8234 12.51 84.5327 12.51C85.2514 12.51 85.886 12.6687 86.4367 12.986C86.9874 13.3033 87.4167 13.7513 87.7247 14.33C88.042 14.8993 88.2007 15.5667 88.2007 16.332C88.2007 16.388 88.196 16.4533 88.1867 16.528C88.1867 16.6027 88.182 16.6727 88.1727 16.738H81.8587V15.772H87.4727L86.9267 16.108C86.936 15.632 86.838 15.2073 86.6327 14.834C86.4274 14.4607 86.1427 14.1713 85.7787 13.966C85.424 13.7513 85.0087 13.644 84.5327 13.644C84.066 13.644 83.6507 13.7513 83.2867 13.966C82.9227 14.1713 82.638 14.4653 82.4327 14.848C82.2274 15.2213 82.1247 15.6507 82.1247 16.136V16.36C82.1247 16.8547 82.2367 17.298 82.4607 17.69C82.694 18.0727 83.016 18.3713 83.4267 18.586C83.8374 18.8007 84.3087 18.908 84.8407 18.908C85.2794 18.908 85.676 18.8333 86.0307 18.684C86.3947 18.5347 86.712 18.3107 86.9827 18.012L87.7247 18.88C87.3887 19.272 86.9687 19.5707 86.4647 19.776C85.97 19.9813 85.4147 20.084 84.7987 20.084ZM92.615 20.084C91.8683 20.084 91.2896 19.8833 90.879 19.482C90.4683 19.0807 90.263 18.5067 90.263 17.76V10.956H91.607V17.704C91.607 18.1053 91.705 18.4133 91.901 18.628C92.1063 18.8427 92.3956 18.95 92.769 18.95C93.189 18.95 93.539 18.8333 93.819 18.6L94.239 19.566C94.0336 19.7433 93.7863 19.874 93.497 19.958C93.217 20.042 92.923 20.084 92.615 20.084ZM89.003 13.686V12.58H93.735V13.686H89.003ZM97.9918 20.084C97.3758 20.084 96.7878 20 96.2278 19.832C95.6772 19.664 95.2432 19.4587 94.9258 19.216L95.4858 18.152C95.8032 18.3667 96.1952 18.5487 96.6618 18.698C97.1285 18.8473 97.6045 18.922 98.0898 18.922C98.7152 18.922 99.1632 18.8333 99.4338 18.656C99.7138 18.4787 99.8538 18.2313 99.8538 17.914C99.8538 17.6807 99.7698 17.4987 99.6018 17.368C99.4338 17.2373 99.2098 17.1393 98.9298 17.074C98.6592 17.0087 98.3558 16.9527 98.0198 16.906C97.6838 16.85 97.3478 16.7847 97.0118 16.71C96.6758 16.626 96.3678 16.514 96.0878 16.374C95.8078 16.2247 95.5838 16.024 95.4158 15.772C95.2478 15.5107 95.1638 15.1653 95.1638 14.736C95.1638 14.288 95.2898 13.896 95.5418 13.56C95.7938 13.224 96.1485 12.9673 96.6058 12.79C97.0725 12.6033 97.6232 12.51 98.2578 12.51C98.7432 12.51 99.2332 12.5707 99.7278 12.692C100.232 12.804 100.643 12.9673 100.96 13.182L100.386 14.246C100.05 14.022 99.6998 13.868 99.3358 13.784C98.9718 13.7 98.6078 13.658 98.2438 13.658C97.6558 13.658 97.2172 13.756 96.9278 13.952C96.6385 14.1387 96.4938 14.3813 96.4938 14.68C96.4938 14.932 96.5778 15.128 96.7458 15.268C96.9232 15.3987 97.1472 15.5013 97.4178 15.576C97.6978 15.6507 98.0058 15.716 98.3418 15.772C98.6778 15.8187 99.0138 15.884 99.3498 15.968C99.6858 16.0427 99.9892 16.15 100.26 16.29C100.54 16.43 100.764 16.626 100.932 16.878C101.109 17.13 101.198 17.466 101.198 17.886C101.198 18.334 101.067 18.7213 100.806 19.048C100.545 19.3747 100.176 19.6313 99.6998 19.818C99.2238 19.9953 98.6545 20.084 97.9918 20.084Z" fill="#0DA1C7"/>
</svg>
