<svg width="23" height="23" viewBox="0 0 23 23" fill="none" xmlns="http://www.w3.org/2000/svg">
<rect x="1.41406" y="6.54297" width="20.5656" height="9.348" rx="0.9348" fill="#0DA1C7"/>
<rect x="6.08789" y="0.934082" width="11.2176" height="9.348" rx="0.9348" fill="#0DA1C7"/>
<rect x="6.08789" y="13.0864" width="11.2176" height="9.348" rx="0.9348" fill="#0DA1C7"/>
<path d="M8.89258 15.4236H14.5014" stroke="white" stroke-width="0.9348" stroke-linecap="round"/>
<path d="M8.89258 17.7605H12.6318" stroke="white" stroke-width="0.9348" stroke-linecap="round"/>
<path d="M18.3099 16.8874C18.3099 17.9101 18.3099 18.8748 18.3099 19.8394C18.3082 21.5919 17.3796 22.5179 15.6227 22.5188C13.0004 22.5188 10.3782 22.5205 7.75689 22.5188C6.12483 22.5179 5.16546 21.5568 5.16106 19.9238C5.15842 18.9302 5.16106 17.9374 5.16106 16.891C4.44088 16.891 3.75763 16.8927 3.07349 16.891C1.43439 16.8866 0.481179 15.9369 0.478541 14.3022C0.475903 12.2665 0.475903 10.2299 0.478541 8.19422C0.481179 6.59029 1.44231 5.63708 3.05503 5.63268C3.74004 5.63093 4.42505 5.63268 5.16018 5.63268C5.16018 4.65925 5.15139 3.72626 5.16458 2.79415C5.16986 2.4301 5.17777 2.05462 5.26746 1.7064C5.51808 0.733845 6.41853 0.0189357 7.43066 0.0136596C10.3017 -0.00216859 13.1728 -0.00744467 16.0439 0.0154183C17.3374 0.0259705 18.2888 1.07679 18.3082 2.44505C18.3222 3.45542 18.3143 4.46667 18.3161 5.47704C18.3161 5.50606 18.3266 5.5342 18.346 5.63181C18.5148 5.63181 18.6986 5.62741 18.8815 5.63181C19.6553 5.65467 20.4432 5.59751 21.2003 5.7259C22.2415 5.90176 22.974 6.83475 22.9837 7.88909C23.003 10.1297 23.0056 12.3711 22.9837 14.6126C22.9714 15.8665 21.9601 16.8531 20.7026 16.883C19.9288 16.9015 19.1541 16.8866 18.3117 16.8866L18.3099 16.8874ZM5.16018 15.9263C5.16018 14.8614 5.15579 13.8519 5.16194 12.8433C5.16546 12.3606 5.31671 12.2058 5.79155 12.2058C9.74774 12.2023 13.7039 12.2032 17.6601 12.2058C18.1613 12.2058 18.3047 12.3562 18.3082 12.8697C18.3135 13.7341 18.3082 14.5985 18.3108 15.4629C18.3108 15.6168 18.324 15.7698 18.3328 15.9413C19.0776 15.9413 19.7653 15.9439 20.4538 15.9413C21.5143 15.9369 22.041 15.4101 22.0428 14.3461C22.0454 12.3236 22.0445 10.302 22.0428 8.27952C22.0428 7.06954 21.5512 6.58062 20.3368 6.58062C15.5892 6.58062 10.8416 6.58062 6.09493 6.58062C4.99575 6.58062 3.89656 6.57007 2.79826 6.58678C2.02795 6.59821 1.44143 7.15483 1.43615 7.91107C1.42032 10.1525 1.42208 12.3949 1.43791 14.6363C1.44231 15.3002 1.962 15.8815 2.6048 15.9158C3.43403 15.9597 4.26853 15.9263 5.16018 15.9263ZM6.109 13.1546C6.109 13.3129 6.109 13.429 6.109 13.545C6.109 15.6977 6.10724 17.8503 6.109 20.0021C6.10988 21.0221 6.65683 21.5673 7.68831 21.5682C10.3826 21.5717 13.0769 21.5708 15.7713 21.5682C16.8256 21.5673 17.3602 21.0265 17.3611 19.9687C17.3629 17.8451 17.362 15.7223 17.3611 13.5987C17.3611 13.4571 17.3479 13.3155 17.34 13.1537H6.109V13.1546ZM6.11164 5.60015H17.3585C17.3585 4.47107 17.3769 3.37364 17.3523 2.27622C17.3356 1.54284 16.7535 0.965992 16.021 0.962475C13.164 0.948405 10.3079 0.948405 7.45088 0.962475C6.71751 0.965992 6.13538 1.54372 6.11867 2.27622C6.09405 3.37276 6.11252 4.47107 6.11252 5.60015H6.11164Z" fill="white"/>
</svg>
