<svg width="12" height="16" viewBox="0 0 12 16" fill="none" xmlns="http://www.w3.org/2000/svg">
<path d="M12 10.1818C12 10.3788 11.9258 10.5492 11.7773 10.6932L6.52734 15.7841C6.37891 15.928 6.20312 16 6 16C5.79688 16 5.62109 15.928 5.47266 15.7841L0.222656 10.6932C0.0742188 10.5492 0 10.3788 0 10.1818C0 9.98485 0.0742188 9.81439 0.222656 9.67045C0.371094 9.52652 0.546875 9.45455 0.75 9.45455H11.25C11.4531 9.45455 11.6289 9.52652 11.7773 9.67045C11.9258 9.81439 12 9.98485 12 10.1818ZM12 5.81818C12 6.01515 11.9258 6.18561 11.7773 6.32955C11.6289 6.47348 11.4531 6.54545 11.25 6.54545H0.75C0.546875 6.54545 0.371094 6.47348 0.222656 6.32955C0.0742188 6.18561 0 6.01515 0 5.81818C0 5.62121 0.0742188 5.45076 0.222656 5.30682L5.47266 0.215909C5.62109 0.0719697 5.79688 0 6 0C6.20312 0 6.37891 0.0719697 6.52734 0.215909L11.7773 5.30682C11.9258 5.45076 12 5.62121 12 5.81818Z" fill="black"/>
</svg>
